# Blender 3.6.4
# www.blender.org
mtllib river-col1.mtl
o River_col
v 391.790314 2.410452 792.484619
v 382.444641 2.410452 734.835815
v 326.802765 4.066373 847.951904
v 283.175598 2.410452 790.303101
v 382.444641 2.410452 713.634155
v 356.689178 2.410452 713.634155
v 346.423401 2.410452 713.634155
v 332.212860 2.410452 713.634155
v 324.614929 4.541726 716.650146
v 306.287231 4.963882 722.811707
v 297.129456 2.312002 737.641724
v 283.629059 1.217879 762.698914
v 279.286499 6.180355 770.278503
v 281.363037 5.794284 777.591309
v 252.524460 1.324526 708.475159
v 242.060959 2.682671 734.061157
v 206.804092 1.324526 698.215759
v 196.340591 2.682671 723.801758
v 162.357224 1.324526 690.916138
v 138.411072 2.682671 712.569153
v 117.332733 1.324526 669.202576
v 102.728912 2.682671 691.627930
vn 0.0003 0.9999 -0.0145
vn 0.0187 0.9998 0.0118
vn 0.0069 1.0000 -0.0020
vn 0.0109 0.9988 -0.0486
vn 0.0092 0.9987 -0.0507
vn 0.0222 0.9989 -0.0421
vt 0.000000 0.000000
vt 1.000000 0.000000
vt 1.000000 1.000000
vt 0.000000 1.000000
s 0
f 1/1/1 2/2/1 4/3/1 3/4/1
f 4/3/2 2/2/2 5/1/2 6/1/2 7/1/2 8/1/2 9/1/2 10/1/2 11/1/2 12/1/2 13/1/2 14/1/2
f 12/1/3 11/1/3 15/1/3 16/1/3
f 16/1/4 15/1/4 17/1/4 18/1/4
f 18/1/5 17/1/5 19/1/5 20/1/5
f 20/1/6 19/1/6 21/1/6 22/1/6
